<svg width="265" height="174" viewBox="0 0 265 174" fill="none" xmlns="http://www.w3.org/2000/svg">
<path d="M0.0454545 91.3508L3.90909 68.0781H20.2727L19.4091 73.169H9.36364L8.72727 77.169H17.7727L16.9091 82.2599H7.86364L6.36364 91.3508H0.0454545ZM23.267 91.6236C22.161 91.6236 21.2102 91.4417 20.4148 91.0781C19.6269 90.7069 19.0511 90.1463 18.6875 89.3963C18.3314 88.6387 18.2519 87.6842 18.4489 86.5326C18.608 85.5781 18.9072 84.7637 19.3466 84.0895C19.786 83.4152 20.3314 82.8622 20.983 82.4304C21.6345 81.9986 22.3655 81.669 23.1761 81.4417C23.9943 81.2069 24.858 81.0554 25.767 80.9872C26.7519 80.9114 27.5511 80.8167 28.1648 80.7031C28.7784 80.5895 29.2367 80.4342 29.5398 80.2372C29.8428 80.0402 30.0246 79.7751 30.0852 79.4417V79.3963C30.1534 78.9417 30.0322 78.5933 29.7216 78.3508C29.4186 78.1084 28.9943 77.9872 28.4489 77.9872C27.858 77.9872 27.3466 78.116 26.9148 78.3736C26.4905 78.6311 26.1989 79.0326 26.0398 79.5781H20.267C20.5095 78.5175 21.0057 77.5402 21.7557 76.6463C22.5133 75.7448 23.517 75.0251 24.767 74.4872C26.0246 73.9417 27.5246 73.669 29.267 73.669C30.5095 73.669 31.6004 73.8167 32.5398 74.1122C33.4792 74.4001 34.2557 74.8054 34.8693 75.3281C35.4905 75.8433 35.9261 76.4493 36.1761 77.1463C36.4337 77.8357 36.4943 78.5857 36.358 79.3963L34.358 91.3508H28.4943L28.9034 88.8963H28.767C28.3125 89.5478 27.8011 90.0743 27.233 90.4758C26.6723 90.8773 26.0587 91.169 25.392 91.3508C24.733 91.5326 24.0246 91.6236 23.267 91.6236ZM25.9943 87.669C26.464 87.669 26.9261 87.5705 27.3807 87.3736C27.8352 87.1766 28.2254 86.8925 28.5511 86.5213C28.8769 86.1501 29.0852 85.6993 29.1761 85.169L29.4034 83.7145C29.2367 83.7826 29.0511 83.847 28.8466 83.9076C28.6496 83.9607 28.4413 84.0137 28.2216 84.0667C28.0095 84.1198 27.7822 84.169 27.5398 84.2145C27.3049 84.2599 27.0625 84.3054 26.8125 84.3508C26.3125 84.4266 25.892 84.5516 25.5511 84.7258C25.2102 84.8925 24.9451 85.1008 24.7557 85.3508C24.5663 85.5933 24.4489 85.866 24.4034 86.169C24.3352 86.6463 24.4451 87.0175 24.733 87.2826C25.0284 87.5402 25.4489 87.669 25.9943 87.669ZM45.7188 91.669C43.8248 91.669 42.2642 91.294 41.0369 90.544C39.8097 89.7864 38.9498 88.7334 38.4574 87.3849C37.965 86.0289 37.8703 84.4569 38.1733 82.669C38.4612 80.8811 39.0748 79.313 40.0142 77.9645C40.9612 76.6084 42.1733 75.5554 43.6506 74.8054C45.1354 74.0478 46.8248 73.669 48.7188 73.669C50.4309 73.669 51.8589 73.9796 53.0028 74.6008C54.1544 75.2145 54.9763 76.0857 55.4688 77.2145C55.9688 78.3357 56.0975 79.6539 55.8551 81.169H50.0369C50.1051 80.2599 49.9574 79.563 49.5938 79.0781C49.2377 78.5933 48.7188 78.3508 48.0369 78.3508C47.4763 78.3508 46.9612 78.5099 46.4915 78.8281C46.0294 79.1387 45.6316 79.6122 45.2983 80.2486C44.9725 80.8773 44.7339 81.669 44.5824 82.6236C44.4309 83.5781 44.4119 84.3736 44.5256 85.0099C44.6468 85.6387 44.8816 86.1122 45.2301 86.4304C45.5862 86.741 46.0369 86.8963 46.5824 86.8963C47.0521 86.8963 47.4839 86.7902 47.8778 86.5781C48.2794 86.3584 48.6241 86.0402 48.9119 85.6236C49.2074 85.1993 49.4309 84.6842 49.5824 84.0781H55.4006C55.1127 85.6236 54.5331 86.9645 53.6619 88.1008C52.7907 89.2372 51.6809 90.116 50.3324 90.7372C48.9839 91.3584 47.446 91.669 45.7188 91.669ZM56.7614 91.3508L59.6705 73.8963H65.9432L63.0341 91.3508H56.7614ZM63.0795 72.0781C62.2311 72.0781 61.5455 71.7978 61.0227 71.2372C60.5 70.669 60.3068 69.9948 60.4432 69.2145C60.5795 68.419 60.9962 67.7448 61.6932 67.1917C62.3902 66.6311 63.1629 66.3508 64.0114 66.3508C64.8674 66.3508 65.5492 66.6311 66.0568 67.1917C66.5644 67.7448 66.7538 68.419 66.625 69.2145C66.5038 69.9948 66.0947 70.669 65.3977 71.2372C64.7083 71.7978 63.9356 72.0781 63.0795 72.0781ZM76.3665 68.0781L72.5028 91.3508H66.2301L70.0938 68.0781H76.3665ZM75.6989 91.3508L78.608 73.8963H84.8807L81.9716 91.3508H75.6989ZM82.017 72.0781C81.1686 72.0781 80.483 71.7978 79.9602 71.2372C79.4375 70.669 79.2443 69.9948 79.3807 69.2145C79.517 68.419 79.9337 67.7448 80.6307 67.1917C81.3277 66.6311 82.1004 66.3508 82.9489 66.3508C83.8049 66.3508 84.4867 66.6311 84.9943 67.1917C85.5019 67.7448 85.6913 68.419 85.5625 69.2145C85.4413 69.9948 85.0322 70.669 84.3352 71.2372C83.6458 71.7978 82.8731 72.0781 82.017 72.0781ZM98.4858 73.8963L97.7131 78.4417H86.2131L86.9858 73.8963H98.4858ZM89.8949 69.7145H96.1676L93.5085 85.7372C93.4706 85.9796 93.4782 86.1842 93.5312 86.3508C93.5843 86.5099 93.6903 86.6311 93.8494 86.7145C94.0161 86.7902 94.2358 86.8281 94.5085 86.8281C94.6903 86.8281 94.9138 86.8054 95.179 86.7599C95.4441 86.7069 95.6449 86.669 95.7812 86.6463L95.9631 91.0554C95.6449 91.1463 95.2169 91.2486 94.679 91.3622C94.1487 91.4834 93.5313 91.563 92.8267 91.6008C91.357 91.669 90.16 91.5137 89.2358 91.1349C88.3191 90.7561 87.6828 90.1652 87.3267 89.3622C86.9782 88.5516 86.9176 87.5402 87.1449 86.3281L89.8949 69.7145ZM106.267 91.669C104.403 91.669 102.858 91.313 101.631 90.6008C100.403 89.8811 99.5398 88.8508 99.0398 87.5099C98.5398 86.1614 98.4489 84.5478 98.767 82.669C99.0701 80.866 99.6951 79.2902 100.642 77.9417C101.597 76.5933 102.797 75.544 104.244 74.794C105.699 74.044 107.328 73.669 109.131 73.669C110.449 73.669 111.604 73.8736 112.597 74.2826C113.597 74.6917 114.411 75.2864 115.04 76.0667C115.669 76.847 116.093 77.7902 116.312 78.8963C116.54 79.9948 116.54 81.2372 116.312 82.6236L116.085 84.0781H100.494L101.04 80.6236H110.858C110.934 80.1236 110.884 79.6842 110.71 79.3054C110.544 78.919 110.275 78.6198 109.903 78.4076C109.54 78.188 109.1 78.0781 108.585 78.0781C108.07 78.0781 107.585 78.188 107.131 78.4076C106.684 78.6273 106.301 78.9342 105.983 79.3281C105.672 79.722 105.464 80.1842 105.358 80.7145L104.676 84.3508C104.585 84.9114 104.619 85.4114 104.778 85.8508C104.938 86.2902 105.214 86.6349 105.608 86.8849C106.002 87.1349 106.509 87.2599 107.131 87.2599C107.555 87.2599 107.956 87.2031 108.335 87.0895C108.722 86.9683 109.063 86.794 109.358 86.5667C109.661 86.3319 109.903 86.0478 110.085 85.7145H115.812C115.403 86.9266 114.756 87.9796 113.869 88.8736C112.991 89.7599 111.907 90.4493 110.619 90.9417C109.339 91.4266 107.888 91.669 106.267 91.669ZM125.736 91.669C123.872 91.669 122.327 91.313 121.099 90.6008C119.872 89.8811 119.009 88.8508 118.509 87.5099C118.009 86.1614 117.918 84.5478 118.236 82.669C118.539 80.866 119.164 79.2902 120.111 77.9417C121.065 76.5933 122.266 75.544 123.713 74.794C125.168 74.044 126.796 73.669 128.599 73.669C129.918 73.669 131.073 73.8736 132.065 74.2826C133.065 74.6917 133.88 75.2864 134.509 76.0667C135.137 76.847 135.562 77.7902 135.781 78.8963C136.009 79.9948 136.009 81.2372 135.781 82.6236L135.554 84.0781H119.963L120.509 80.6236H130.327C130.402 80.1236 130.353 79.6842 130.179 79.3054C130.012 78.919 129.743 78.6198 129.372 78.4076C129.009 78.188 128.569 78.0781 128.054 78.0781C127.539 78.0781 127.054 78.188 126.599 78.4076C126.152 78.6273 125.77 78.9342 125.452 79.3281C125.141 79.722 124.933 80.1842 124.827 80.7145L124.145 84.3508C124.054 84.9114 124.088 85.4114 124.247 85.8508C124.406 86.2902 124.683 86.6349 125.077 86.8849C125.471 87.1349 125.978 87.2599 126.599 87.2599C127.024 87.2599 127.425 87.2031 127.804 87.0895C128.19 86.9683 128.531 86.794 128.827 86.5667C129.13 86.3319 129.372 86.0478 129.554 85.7145H135.281C134.872 86.9266 134.224 87.9796 133.338 88.8736C132.459 89.7599 131.376 90.4493 130.088 90.9417C128.808 91.4266 127.357 91.669 125.736 91.669ZM136.886 91.3508L139.795 73.8963H146.068L143.159 91.3508H136.886ZM143.205 72.0781C142.356 72.0781 141.67 71.7978 141.148 71.2372C140.625 70.669 140.432 69.9948 140.568 69.2145C140.705 68.419 141.121 67.7448 141.818 67.1917C142.515 66.6311 143.288 66.3508 144.136 66.3508C144.992 66.3508 145.674 66.6311 146.182 67.1917C146.689 67.7448 146.879 68.419 146.75 69.2145C146.629 69.9948 146.22 70.669 145.523 71.2372C144.833 71.7978 144.061 72.0781 143.205 72.0781ZM157.446 68.0781L154.219 84.0781H149.082L151.128 68.0781H157.446ZM150.628 91.7145C149.741 91.7145 149.018 91.4076 148.457 90.794C147.904 90.1728 147.673 89.419 147.764 88.5326C147.855 87.669 148.245 86.9304 148.935 86.3167C149.632 85.7031 150.423 85.3963 151.31 85.3963C152.151 85.3963 152.851 85.7031 153.412 86.3167C153.98 86.9304 154.219 87.669 154.128 88.5326C154.067 89.1236 153.859 89.6614 153.503 90.1463C153.154 90.6236 152.723 91.0061 152.207 91.294C151.7 91.5743 151.173 91.7145 150.628 91.7145Z" fill="#FD7401"/>
<g filter="url(#filter0_d_6_3)">
<path d="M219 65.4772L216.116 88.8782L194 99.9773L193.653 88.9031L193.639 75.6576L219 65.4772Z" fill="#FD7401"/>
</g>
<g filter="url(#filter1_d_6_3)">
<path d="M193.985 75.8914L194.033 92.6882L194.024 99.9549L166.011 88.0566L166.477 66L193.985 75.8914Z" fill="#FD7401"/>
</g>
<path d="M194.193 53.8508L219 65.4775L194.193 78.9775L166.5 65.9775L194.193 53.8508Z" fill="#F9F3F3"/>
<defs>
<filter id="filter0_d_6_3" x="189.639" y="65.4772" width="33.3616" height="42.5001" filterUnits="userSpaceOnUse" color-interpolation-filters="sRGB">
<feFlood flood-opacity="0" result="BackgroundImageFix"/>
<feColorMatrix in="SourceAlpha" type="matrix" values="0 0 0 0 0 0 0 0 0 0 0 0 0 0 0 0 0 0 127 0" result="hardAlpha"/>
<feOffset dy="4"/>
<feGaussianBlur stdDeviation="2"/>
<feComposite in2="hardAlpha" operator="out"/>
<feColorMatrix type="matrix" values="0 0 0 0 0 0 0 0 0 0 0 0 0 0 0 0 0 0 0.25 0"/>
<feBlend mode="normal" in2="BackgroundImageFix" result="effect1_dropShadow_6_3"/>
<feBlend mode="normal" in="SourceGraphic" in2="effect1_dropShadow_6_3" result="shape"/>
</filter>
<filter id="filter1_d_6_3" x="96.0111" y="0" width="168.022" height="173.955" filterUnits="userSpaceOnUse" color-interpolation-filters="sRGB">
<feFlood flood-opacity="0" result="BackgroundImageFix"/>
<feColorMatrix in="SourceAlpha" type="matrix" values="0 0 0 0 0 0 0 0 0 0 0 0 0 0 0 0 0 0 127 0" result="hardAlpha"/>
<feOffset dy="4"/>
<feGaussianBlur stdDeviation="35"/>
<feComposite in2="hardAlpha" operator="out"/>
<feColorMatrix type="matrix" values="0 0 0 0 0 0 0 0 0 0 0 0 0 0 0 0 0 0 0.25 0"/>
<feBlend mode="normal" in2="BackgroundImageFix" result="effect1_dropShadow_6_3"/>
<feBlend mode="normal" in="SourceGraphic" in2="effect1_dropShadow_6_3" result="shape"/>
</filter>
</defs>
</svg>
