<svg width="158" height="39" viewBox="0 0 158 39" fill="none" xmlns="http://www.w3.org/2000/svg">
<path d="M0.0454545 31L3.90909 7.72727H20.2727L19.4091 12.8182H9.36364L8.72727 16.8182H17.7727L16.9091 21.9091H7.86364L6.36364 31H0.0454545ZM23.267 31.2727C22.161 31.2727 21.2102 31.0909 20.4148 30.7273C19.6269 30.3561 19.0511 29.7955 18.6875 29.0455C18.3314 28.2879 18.2519 27.3333 18.4489 26.1818C18.608 25.2273 18.9072 24.4129 19.3466 23.7386C19.786 23.0644 20.3314 22.5114 20.983 22.0795C21.6345 21.6477 22.3655 21.3182 23.1761 21.0909C23.9943 20.8561 24.858 20.7045 25.767 20.6364C26.7519 20.5606 27.5511 20.4659 28.1648 20.3523C28.7784 20.2386 29.2367 20.0833 29.5398 19.8864C29.8428 19.6894 30.0246 19.4242 30.0852 19.0909V19.0455C30.1534 18.5909 30.0322 18.2424 29.7216 18C29.4186 17.7576 28.9943 17.6364 28.4489 17.6364C27.858 17.6364 27.3466 17.7652 26.9148 18.0227C26.4905 18.2803 26.1989 18.6818 26.0398 19.2273H20.267C20.5095 18.1667 21.0057 17.1894 21.7557 16.2955C22.5133 15.3939 23.517 14.6742 24.767 14.1364C26.0246 13.5909 27.5246 13.3182 29.267 13.3182C30.5095 13.3182 31.6004 13.4659 32.5398 13.7614C33.4792 14.0492 34.2557 14.4545 34.8693 14.9773C35.4905 15.4924 35.9261 16.0985 36.1761 16.7955C36.4337 17.4848 36.4943 18.2348 36.358 19.0455L34.358 31H28.4943L28.9034 28.5455H28.767C28.3125 29.197 27.8011 29.7235 27.233 30.125C26.6723 30.5265 26.0587 30.8182 25.392 31C24.733 31.1818 24.0246 31.2727 23.267 31.2727ZM25.9943 27.3182C26.464 27.3182 26.9261 27.2197 27.3807 27.0227C27.8352 26.8258 28.2254 26.5417 28.5511 26.1705C28.8769 25.7992 29.0852 25.3485 29.1761 24.8182L29.4034 23.3636C29.2367 23.4318 29.0511 23.4962 28.8466 23.5568C28.6496 23.6098 28.4413 23.6629 28.2216 23.7159C28.0095 23.7689 27.7822 23.8182 27.5398 23.8636C27.3049 23.9091 27.0625 23.9545 26.8125 24C26.3125 24.0758 25.892 24.2008 25.5511 24.375C25.2102 24.5417 24.9451 24.75 24.7557 25C24.5663 25.2424 24.4489 25.5152 24.4034 25.8182C24.3352 26.2955 24.4451 26.6667 24.733 26.9318C25.0284 27.1894 25.4489 27.3182 25.9943 27.3182ZM45.7188 31.3182C43.8248 31.3182 42.2642 30.9432 41.0369 30.1932C39.8097 29.4356 38.9498 28.3826 38.4574 27.0341C37.965 25.678 37.8703 24.1061 38.1733 22.3182C38.4612 20.5303 39.0748 18.9621 40.0142 17.6136C40.9612 16.2576 42.1733 15.2045 43.6506 14.4545C45.1354 13.697 46.8248 13.3182 48.7188 13.3182C50.4309 13.3182 51.8589 13.6288 53.0028 14.25C54.1544 14.8636 54.9763 15.7348 55.4688 16.8636C55.9688 17.9848 56.0975 19.303 55.8551 20.8182H50.0369C50.1051 19.9091 49.9574 19.2121 49.5938 18.7273C49.2377 18.2424 48.7188 18 48.0369 18C47.4763 18 46.9612 18.1591 46.4915 18.4773C46.0294 18.7879 45.6316 19.2614 45.2983 19.8977C44.9725 20.5265 44.7339 21.3182 44.5824 22.2727C44.4309 23.2273 44.4119 24.0227 44.5256 24.6591C44.6468 25.2879 44.8816 25.7614 45.2301 26.0795C45.5862 26.3902 46.0369 26.5455 46.5824 26.5455C47.0521 26.5455 47.4839 26.4394 47.8778 26.2273C48.2794 26.0076 48.6241 25.6894 48.9119 25.2727C49.2074 24.8485 49.4309 24.3333 49.5824 23.7273H55.4006C55.1127 25.2727 54.5331 26.6136 53.6619 27.75C52.7907 28.8864 51.6809 29.7652 50.3324 30.3864C48.9839 31.0076 47.446 31.3182 45.7188 31.3182ZM56.7614 31L59.6705 13.5455H65.9432L63.0341 31H56.7614ZM63.0795 11.7273C62.2311 11.7273 61.5455 11.447 61.0227 10.8864C60.5 10.3182 60.3068 9.64394 60.4432 8.86364C60.5795 8.06818 60.9962 7.39394 61.6932 6.84091C62.3902 6.2803 63.1629 6 64.0114 6C64.8674 6 65.5492 6.2803 66.0568 6.84091C66.5644 7.39394 66.7538 8.06818 66.625 8.86364C66.5038 9.64394 66.0947 10.3182 65.3977 10.8864C64.7083 11.447 63.9356 11.7273 63.0795 11.7273ZM76.3665 7.72727L72.5028 31H66.2301L70.0938 7.72727H76.3665ZM75.6989 31L78.608 13.5455H84.8807L81.9716 31H75.6989ZM82.017 11.7273C81.1686 11.7273 80.483 11.447 79.9602 10.8864C79.4375 10.3182 79.2443 9.64394 79.3807 8.86364C79.517 8.06818 79.9337 7.39394 80.6307 6.84091C81.3277 6.2803 82.1004 6 82.9489 6C83.8049 6 84.4867 6.2803 84.9943 6.84091C85.5019 7.39394 85.6913 8.06818 85.5625 8.86364C85.4413 9.64394 85.0322 10.3182 84.3352 10.8864C83.6458 11.447 82.8731 11.7273 82.017 11.7273ZM98.4858 13.5455L97.7131 18.0909H86.2131L86.9858 13.5455H98.4858ZM89.8949 9.36364H96.1676L93.5085 25.3864C93.4706 25.6288 93.4782 25.8333 93.5312 26C93.5843 26.1591 93.6903 26.2803 93.8494 26.3636C94.0161 26.4394 94.2358 26.4773 94.5085 26.4773C94.6903 26.4773 94.9138 26.4545 95.179 26.4091C95.4441 26.3561 95.6449 26.3182 95.7812 26.2955L95.9631 30.7045C95.6449 30.7955 95.2169 30.8977 94.679 31.0114C94.1487 31.1326 93.5313 31.2121 92.8267 31.25C91.357 31.3182 90.16 31.1629 89.2358 30.7841C88.3191 30.4053 87.6828 29.8144 87.3267 29.0114C86.9782 28.2008 86.9176 27.1894 87.1449 25.9773L89.8949 9.36364ZM106.267 31.3182C104.403 31.3182 102.858 30.9621 101.631 30.25C100.403 29.5303 99.5398 28.5 99.0398 27.1591C98.5398 25.8106 98.4489 24.197 98.767 22.3182C99.0701 20.5152 99.6951 18.9394 100.642 17.5909C101.597 16.2424 102.797 15.1932 104.244 14.4432C105.699 13.6932 107.328 13.3182 109.131 13.3182C110.449 13.3182 111.604 13.5227 112.597 13.9318C113.597 14.3409 114.411 14.9356 115.04 15.7159C115.669 16.4962 116.093 17.4394 116.312 18.5455C116.54 19.6439 116.54 20.8864 116.312 22.2727L116.085 23.7273H100.494L101.04 20.2727H110.858C110.934 19.7727 110.884 19.3333 110.71 18.9545C110.544 18.5682 110.275 18.2689 109.903 18.0568C109.54 17.8371 109.1 17.7273 108.585 17.7273C108.07 17.7273 107.585 17.8371 107.131 18.0568C106.684 18.2765 106.301 18.5833 105.983 18.9773C105.672 19.3712 105.464 19.8333 105.358 20.3636L104.676 24C104.585 24.5606 104.619 25.0606 104.778 25.5C104.938 25.9394 105.214 26.2841 105.608 26.5341C106.002 26.7841 106.509 26.9091 107.131 26.9091C107.555 26.9091 107.956 26.8523 108.335 26.7386C108.722 26.6174 109.063 26.4432 109.358 26.2159C109.661 25.9811 109.903 25.697 110.085 25.3636H115.812C115.403 26.5758 114.756 27.6288 113.869 28.5227C112.991 29.4091 111.907 30.0985 110.619 30.5909C109.339 31.0758 107.888 31.3182 106.267 31.3182ZM125.736 31.3182C123.872 31.3182 122.327 30.9621 121.099 30.25C119.872 29.5303 119.009 28.5 118.509 27.1591C118.009 25.8106 117.918 24.197 118.236 22.3182C118.539 20.5152 119.164 18.9394 120.111 17.5909C121.065 16.2424 122.266 15.1932 123.713 14.4432C125.168 13.6932 126.796 13.3182 128.599 13.3182C129.918 13.3182 131.073 13.5227 132.065 13.9318C133.065 14.3409 133.88 14.9356 134.509 15.7159C135.137 16.4962 135.562 17.4394 135.781 18.5455C136.009 19.6439 136.009 20.8864 135.781 22.2727L135.554 23.7273H119.963L120.509 20.2727H130.327C130.402 19.7727 130.353 19.3333 130.179 18.9545C130.012 18.5682 129.743 18.2689 129.372 18.0568C129.009 17.8371 128.569 17.7273 128.054 17.7273C127.539 17.7273 127.054 17.8371 126.599 18.0568C126.152 18.2765 125.77 18.5833 125.452 18.9773C125.141 19.3712 124.933 19.8333 124.827 20.3636L124.145 24C124.054 24.5606 124.088 25.0606 124.247 25.5C124.406 25.9394 124.683 26.2841 125.077 26.5341C125.471 26.7841 125.978 26.9091 126.599 26.9091C127.024 26.9091 127.425 26.8523 127.804 26.7386C128.19 26.6174 128.531 26.4432 128.827 26.2159C129.13 25.9811 129.372 25.697 129.554 25.3636H135.281C134.872 26.5758 134.224 27.6288 133.338 28.5227C132.459 29.4091 131.376 30.0985 130.088 30.5909C128.808 31.0758 127.357 31.3182 125.736 31.3182ZM136.886 31L139.795 13.5455H146.068L143.159 31H136.886ZM143.205 11.7273C142.356 11.7273 141.67 11.447 141.148 10.8864C140.625 10.3182 140.432 9.64394 140.568 8.86364C140.705 8.06818 141.121 7.39394 141.818 6.84091C142.515 6.2803 143.288 6 144.136 6C144.992 6 145.674 6.2803 146.182 6.84091C146.689 7.39394 146.879 8.06818 146.75 8.86364C146.629 9.64394 146.22 10.3182 145.523 10.8864C144.833 11.447 144.061 11.7273 143.205 11.7273ZM157.446 7.72727L154.219 23.7273H149.082L151.128 7.72727H157.446ZM150.628 31.3636C149.741 31.3636 149.018 31.0568 148.457 30.4432C147.904 29.822 147.673 29.0682 147.764 28.1818C147.855 27.3182 148.245 26.5795 148.935 25.9659C149.632 25.3523 150.423 25.0455 151.31 25.0455C152.151 25.0455 152.851 25.3523 153.412 25.9659C153.98 26.5795 154.219 27.3182 154.128 28.1818C154.067 28.7727 153.859 29.3106 153.503 29.7955C153.154 30.2727 152.723 30.6553 152.207 30.9432C151.7 31.2235 151.173 31.3636 150.628 31.3636Z" fill="#FD7401"/>
</svg>
