<svg width="249" height="79" viewBox="0 0 249 79" fill="none" xmlns="http://www.w3.org/2000/svg">
<path d="M212.613 1.40891C226.211 0.824109 234.707 15.9402 227.137 27.2516L203.685 62.2966C200.301 67.3519 194.427 70.1547 188.369 69.6033L47.1928 56.7538C31.7528 55.3485 26.4792 35.4348 39.2 26.5719L62.322 10.462C64.9095 8.65928 67.9565 7.63003 71.1071 7.49453L212.613 1.40891Z" fill="#1B1B1E" fill-opacity="0.9"/>
<path d="M55.0455 44L58.9091 20.7273H75.2727L74.4091 25.8182H64.3636L63.7273 29.8182H72.7727L71.9091 34.9091H62.8636L61.3636 44H55.0455ZM78.267 44.2727C77.161 44.2727 76.2102 44.0909 75.4148 43.7273C74.6269 43.3561 74.0511 42.7955 73.6875 42.0455C73.3314 41.2879 73.2519 40.3333 73.4489 39.1818C73.608 38.2273 73.9072 37.4129 74.3466 36.7386C74.786 36.0644 75.3314 35.5114 75.983 35.0795C76.6345 34.6477 77.3655 34.3182 78.1761 34.0909C78.9943 33.8561 79.858 33.7045 80.767 33.6364C81.7519 33.5606 82.5511 33.4659 83.1648 33.3523C83.7784 33.2386 84.2367 33.0833 84.5398 32.8864C84.8428 32.6894 85.0246 32.4242 85.0852 32.0909V32.0455C85.1534 31.5909 85.0322 31.2424 84.7216 31C84.4186 30.7576 83.9943 30.6364 83.4489 30.6364C82.858 30.6364 82.3466 30.7652 81.9148 31.0227C81.4905 31.2803 81.1989 31.6818 81.0398 32.2273H75.267C75.5095 31.1667 76.0057 30.1894 76.7557 29.2955C77.5133 28.3939 78.517 27.6742 79.767 27.1364C81.0246 26.5909 82.5246 26.3182 84.267 26.3182C85.5095 26.3182 86.6004 26.4659 87.5398 26.7614C88.4792 27.0492 89.2557 27.4545 89.8693 27.9773C90.4905 28.4924 90.9261 29.0985 91.1761 29.7955C91.4337 30.4848 91.4943 31.2348 91.358 32.0455L89.358 44H83.4943L83.9034 41.5455H83.767C83.3125 42.197 82.8011 42.7235 82.233 43.125C81.6723 43.5265 81.0587 43.8182 80.392 44C79.733 44.1818 79.0246 44.2727 78.267 44.2727ZM80.9943 40.3182C81.464 40.3182 81.9261 40.2197 82.3807 40.0227C82.8352 39.8258 83.2254 39.5417 83.5511 39.1705C83.8769 38.7992 84.0852 38.3485 84.1761 37.8182L84.4034 36.3636C84.2367 36.4318 84.0511 36.4962 83.8466 36.5568C83.6496 36.6098 83.4413 36.6629 83.2216 36.7159C83.0095 36.7689 82.7822 36.8182 82.5398 36.8636C82.3049 36.9091 82.0625 36.9545 81.8125 37C81.3125 37.0758 80.892 37.2008 80.5511 37.375C80.2102 37.5417 79.9451 37.75 79.7557 38C79.5663 38.2424 79.4489 38.5152 79.4034 38.8182C79.3352 39.2955 79.4451 39.6667 79.733 39.9318C80.0284 40.1894 80.4489 40.3182 80.9943 40.3182ZM100.719 44.3182C98.8248 44.3182 97.2642 43.9432 96.0369 43.1932C94.8097 42.4356 93.9498 41.3826 93.4574 40.0341C92.965 38.678 92.8703 37.1061 93.1733 35.3182C93.4612 33.5303 94.0748 31.9621 95.0142 30.6136C95.9612 29.2576 97.1733 28.2045 98.6506 27.4545C100.135 26.697 101.825 26.3182 103.719 26.3182C105.431 26.3182 106.859 26.6288 108.003 27.25C109.154 27.8636 109.976 28.7348 110.469 29.8636C110.969 30.9848 111.098 32.303 110.855 33.8182H105.037C105.105 32.9091 104.957 32.2121 104.594 31.7273C104.238 31.2424 103.719 31 103.037 31C102.476 31 101.961 31.1591 101.491 31.4773C101.029 31.7879 100.632 32.2614 100.298 32.8977C99.9725 33.5265 99.7339 34.3182 99.5824 35.2727C99.4309 36.2273 99.4119 37.0227 99.5256 37.6591C99.6468 38.2879 99.8816 38.7614 100.23 39.0795C100.586 39.3902 101.037 39.5455 101.582 39.5455C102.052 39.5455 102.484 39.4394 102.878 39.2273C103.279 39.0076 103.624 38.6894 103.912 38.2727C104.207 37.8485 104.431 37.3333 104.582 36.7273H110.401C110.113 38.2727 109.533 39.6136 108.662 40.75C107.791 41.8864 106.681 42.7652 105.332 43.3864C103.984 44.0076 102.446 44.3182 100.719 44.3182ZM111.761 44L114.67 26.5455H120.943L118.034 44H111.761ZM118.08 24.7273C117.231 24.7273 116.545 24.447 116.023 23.8864C115.5 23.3182 115.307 22.6439 115.443 21.8636C115.58 21.0682 115.996 20.3939 116.693 19.8409C117.39 19.2803 118.163 19 119.011 19C119.867 19 120.549 19.2803 121.057 19.8409C121.564 20.3939 121.754 21.0682 121.625 21.8636C121.504 22.6439 121.095 23.3182 120.398 23.8864C119.708 24.447 118.936 24.7273 118.08 24.7273ZM131.366 20.7273L127.503 44H121.23L125.094 20.7273H131.366ZM130.699 44L133.608 26.5455H139.881L136.972 44H130.699ZM137.017 24.7273C136.169 24.7273 135.483 24.447 134.96 23.8864C134.438 23.3182 134.244 22.6439 134.381 21.8636C134.517 21.0682 134.934 20.3939 135.631 19.8409C136.328 19.2803 137.1 19 137.949 19C138.805 19 139.487 19.2803 139.994 19.8409C140.502 20.3939 140.691 21.0682 140.562 21.8636C140.441 22.6439 140.032 23.3182 139.335 23.8864C138.646 24.447 137.873 24.7273 137.017 24.7273ZM153.486 26.5455L152.713 31.0909H141.213L141.986 26.5455H153.486ZM144.895 22.3636H151.168L148.509 38.3864C148.471 38.6288 148.478 38.8333 148.531 39C148.584 39.1591 148.69 39.2803 148.849 39.3636C149.016 39.4394 149.236 39.4773 149.509 39.4773C149.69 39.4773 149.914 39.4545 150.179 39.4091C150.444 39.3561 150.645 39.3182 150.781 39.2955L150.963 43.7045C150.645 43.7955 150.217 43.8977 149.679 44.0114C149.149 44.1326 148.531 44.2121 147.827 44.25C146.357 44.3182 145.16 44.1629 144.236 43.7841C143.319 43.4053 142.683 42.8144 142.327 42.0114C141.978 41.2008 141.918 40.1894 142.145 38.9773L144.895 22.3636ZM161.267 44.3182C159.403 44.3182 157.858 43.9621 156.631 43.25C155.403 42.5303 154.54 41.5 154.04 40.1591C153.54 38.8106 153.449 37.197 153.767 35.3182C154.07 33.5152 154.695 31.9394 155.642 30.5909C156.597 29.2424 157.797 28.1932 159.244 27.4432C160.699 26.6932 162.328 26.3182 164.131 26.3182C165.449 26.3182 166.604 26.5227 167.597 26.9318C168.597 27.3409 169.411 27.9356 170.04 28.7159C170.669 29.4962 171.093 30.4394 171.312 31.5455C171.54 32.6439 171.54 33.8864 171.312 35.2727L171.085 36.7273H155.494L156.04 33.2727H165.858C165.934 32.7727 165.884 32.3333 165.71 31.9545C165.544 31.5682 165.275 31.2689 164.903 31.0568C164.54 30.8371 164.1 30.7273 163.585 30.7273C163.07 30.7273 162.585 30.8371 162.131 31.0568C161.684 31.2765 161.301 31.5833 160.983 31.9773C160.672 32.3712 160.464 32.8333 160.358 33.3636L159.676 37C159.585 37.5606 159.619 38.0606 159.778 38.5C159.938 38.9394 160.214 39.2841 160.608 39.5341C161.002 39.7841 161.509 39.9091 162.131 39.9091C162.555 39.9091 162.956 39.8523 163.335 39.7386C163.722 39.6174 164.063 39.4432 164.358 39.2159C164.661 38.9811 164.903 38.697 165.085 38.3636H170.812C170.403 39.5758 169.756 40.6288 168.869 41.5227C167.991 42.4091 166.907 43.0985 165.619 43.5909C164.339 44.0758 162.888 44.3182 161.267 44.3182ZM180.736 44.3182C178.872 44.3182 177.327 43.9621 176.099 43.25C174.872 42.5303 174.009 41.5 173.509 40.1591C173.009 38.8106 172.918 37.197 173.236 35.3182C173.539 33.5152 174.164 31.9394 175.111 30.5909C176.065 29.2424 177.266 28.1932 178.713 27.4432C180.168 26.6932 181.796 26.3182 183.599 26.3182C184.918 26.3182 186.073 26.5227 187.065 26.9318C188.065 27.3409 188.88 27.9356 189.509 28.7159C190.137 29.4962 190.562 30.4394 190.781 31.5455C191.009 32.6439 191.009 33.8864 190.781 35.2727L190.554 36.7273H174.963L175.509 33.2727H185.327C185.402 32.7727 185.353 32.3333 185.179 31.9545C185.012 31.5682 184.743 31.2689 184.372 31.0568C184.009 30.8371 183.569 30.7273 183.054 30.7273C182.539 30.7273 182.054 30.8371 181.599 31.0568C181.152 31.2765 180.77 31.5833 180.452 31.9773C180.141 32.3712 179.933 32.8333 179.827 33.3636L179.145 37C179.054 37.5606 179.088 38.0606 179.247 38.5C179.406 38.9394 179.683 39.2841 180.077 39.5341C180.471 39.7841 180.978 39.9091 181.599 39.9091C182.024 39.9091 182.425 39.8523 182.804 39.7386C183.19 39.6174 183.531 39.4432 183.827 39.2159C184.13 38.9811 184.372 38.697 184.554 38.3636H190.281C189.872 39.5758 189.224 40.6288 188.338 41.5227C187.459 42.4091 186.376 43.0985 185.088 43.5909C183.808 44.0758 182.357 44.3182 180.736 44.3182ZM191.886 44L194.795 26.5455H201.068L198.159 44H191.886ZM198.205 24.7273C197.356 24.7273 196.67 24.447 196.148 23.8864C195.625 23.3182 195.432 22.6439 195.568 21.8636C195.705 21.0682 196.121 20.3939 196.818 19.8409C197.515 19.2803 198.288 19 199.136 19C199.992 19 200.674 19.2803 201.182 19.8409C201.689 20.3939 201.879 21.0682 201.75 21.8636C201.629 22.6439 201.22 23.3182 200.523 23.8864C199.833 24.447 199.061 24.7273 198.205 24.7273ZM212.446 20.7273L209.219 36.7273H204.082L206.128 20.7273H212.446ZM205.628 44.3636C204.741 44.3636 204.018 44.0568 203.457 43.4432C202.904 42.822 202.673 42.0682 202.764 41.1818C202.855 40.3182 203.245 39.5795 203.935 38.9659C204.632 38.3523 205.423 38.0455 206.31 38.0455C207.151 38.0455 207.851 38.3523 208.412 38.9659C208.98 39.5795 209.219 40.3182 209.128 41.1818C209.067 41.7727 208.859 42.3106 208.503 42.7955C208.154 43.2727 207.723 43.6553 207.207 43.9432C206.7 44.2235 206.173 44.3636 205.628 44.3636Z" fill="#FD7401"/>
</svg>
